<svg fill="none" height="56" viewBox="0 0 190 56" width="190" xmlns="http://www.w3.org/2000/svg"><g fill="#1f2046"><path d="m28.0443 53.4695c-14.0641 0-25.50985-11.4252-25.50985-25.4695 0-14.0444 11.44325-25.46955 25.50985-25.46955s25.5099 11.42515 25.5099 25.46955c0 14.0443-11.4458 25.4695-25.5099 25.4695zm0-53.4695c-15.4634 0-28.0443 12.5611-28.0443 28s12.5809 28 28.0443 28 28.0418-12.5611 28.0418-28-12.5784-28-28.0418-28z"/><path d="m28.5921 14.1724c-.2492.2637-.5009.4041-.8983.3918.3653.1035.6466.1528.8811.0197.0123.1799.1554.3302.3455.3524.2147.0246.4071-.1232.4318-.3302.0173-.1528-.0617-.2957-.1925-.3696.1407-.0123.2814.0148.5281-.0493-.2048-.2809-.7378-.3917-1.0957-.0148z"/><path d="m26.4576 17.388s.3578.8451.5108.9708c0 0-.5256-.1306-.6712-.2267 0 0 .1184-.4805.1604-.7441zm-.3159.2513s-.3184-.611-.3973-.988c0 0 .3627.0961.6145.0517-.0025 0-.1358.4411-.2172.9363zm16.1469 1.3897c-.2048 1.7075-1.451 2.7768-2.7516 3.7328-.9575.717-2.7195 1.4981-2.9515 2.5871-.3085 1.4562.4121 1.6385 3.0996 3.521.8242-.1848 1.9274-2.0106 1.2462-3.4323-.496-1.0324-1.261-1.2024-1.9224-1.6607.3381-.1971.3332-.2143.7181-.478 1.7769 1.1088 2.7566 2.2767 2.2359 4.0704-.3875 1.333-1.5103 2.1215-1.461 2.9765.274 1.0274.3455 3.0774-1.6978 2.9419-1.8386-.1306-3.4254-1.1236-3.4377-1.131 0-.0098-.0222-.0862.0444.6604.1012 1.1432-.0469 1.9957.3801 2.5477 1.0784 1.3872 2.2481 1.6804 3.3957 1.4512-.2641.5199-.6342.9536-.9156.8648.6367.6185.58 1.1975.58 2.5206 0 1.1039-.3949 3.4323-1.2191 3.9817-.6367.4559-1.229.478-2.0779.4657.0592-.2267.0271-.4731-.1654-.6307-.1653-.1331-.2838-.1676-.5849-.1996-.1628-.0197.1629-.5519.2715-.6628.2147-.2193.4393-.2858.7181-.2661-.3948-.0542-.6342.0345-.9081.2735-.1358.1182-.2517.303-.3159.4558-.1037.3105-.1752.4903-.2542.5938-.1505.17-.2616.2415-.4713.2464-.3184.0049-.4566-.2168-.4566-.6948-.0099-.2982-.0814-.4263-.2739-.547-.1037-.0863-.3554-.0863-.4911.0517.0543-.2414.1357-.4361.4121-.648.3702-.2612 1.0661-.4065 1.5819-.1626-.538-.2489-.7873-.2784-1.2709-.138-.1925.0591-.4023.1626-.5084.2587-.1604.1528-.3085.1528-.3727.0567-.0666-.0986.2814-.2489.1555-.6283-.1431-.2415-.1357-.3548.0222-.4657.311-.2168 1.2784-.1478 1.614.1257-.2888-.3425-.6071-.4238-1.1895-.377-.2863.0222-.4886.1823-.4862 0-.0247-.754 1.0809-.8402 1.6633-.5322.6491.3425.8712 1.227 1.5844 1.1802.7773-.0542.9353-1.9637.1949-2.6857-.7921-.7663-1.7669-.7564-2.7615-.9708-.8834-.2168-1.2166-.611-1.4239-.85.0198.5199-.2024.8229-.7477 1.057.3405-.6874-.2666-1.0398-.2221-1.7494-.2049.717-.7774 1.3478-1.1525 1.4858.4787-1.025-.6565-2.5009.7848-2.7029-.274-2.1905 1.4708-2.1905 1.0118-3.76-.4146-1.4192-1.4832-2.05-3.6351-2.9468-.881-.3672-2.1618-.7663-2.9812-1.5424-.7452.4952-1.3671 1.158-1.6806 2.1707-.5059-1.0004-1.182-2.9321.5553-5.8026-1.3055.8575-2.379.4953-2.7886.1405 1.0759-.1577 1.5868-1.1679 2.1939-2.0648.7058-.8993 1.2783-1.8553 3.8991-2.1313.8169-.0862 1.9669-.2341 2.4604-1.0102.3776-.5371.1555-1.0669.1555-1.0669s.0173.7712-.5725 1.1802c-.422.2908-.9107.4386-1.1328.4756-.9747.1872-1.7398.0714-1.8632-.0173-.1233-.0887-.4269-.1946-.1505-.6455.2468-.4016.3035.1035 1.3376.0296 1.0192-.074 1.1475-.515 1.1426-1.4858-.0074-1.1556-.2098-1.2812-.7231-1.2812-.538 0-.575.3449-1.0587.6135-.5602.3154-.9279.1059-.9279.1059s-.2616-.0714-.2394-.4114c.0148-.3745.2345-.3795.4072-.5519.0543-.0543.1752-.1577.1826-.3573.005-.1996-.0444-.6456-.2887-.4164-.2122.1996.1777.2464.1036.4533-.0937.2563-.4392.3696-.4392.3696s-.0963-.7736.0888-.9239c.3184-.2563 1.039-.2711 1.1451-.2932.4442-.1035.7749-.6752 1.1179-.9142s.8909-.3646 1.3277-.3695c.8983-.0099.4985-.0469 1.5078.0468.5035.1035.6737.2464.9501.4977.2715-.0739 1.0637.0813 1.5301.0936-.195.5051-.2419 1.3108-.5849 1.5991.0074.0296.0173.0591.0247.0912.4096 1.2295 1.0143 2.1041 1.9668 2.2076-.9106.5002-1.6855.1257-1.6855.1257.0518.069.5084.3967.2814 1.6508-.1703.887.3652 2.0697 1.2166 2.3999-.8144.234-2.1717-.2785-2.2852-.4189.0099.0222-.0938.0542-.7453 1.0127.8243 4.4572 2.5715 6.9753 3.5339 7.8722 1.0316.9634 5.1059 3.3953 4.7284.9659-.2641-1.7051-1.8854-2.4714-2.4901-2.9937-1.7422-1.5079-1.7422-2.8483-.7872-3.9226 1.3277-1.4931 3.5389-1.981 4.257-3.7722.6219-1.5498-.1851-1.0669-.7403-2.0525-.617-1.3034-.4566-2.7226-.3357-3.2006 1.8756.3277 3.0379 2.0155 2.7985 3.7575zm-7.707 26.6103s-.2171-1.8159.5504-1.5473c.723.2537-.5504 1.5473-.5504 1.5473zm-1.7891-1.0595c-.2345.2957-.5824.6554-.5824.6554s-.0568-.7663.0987-1.2319c.1086-.3425.5725-.8944.8069-.3647.1382.3277-.1357.6924-.3232.9412zm-1.2191-3.0109s.8168-.8796.8637-.4435c.0296.2538-.8637.4435-.8637.4435zm-.2123 1.6558s.5158-1.7568 1.0563-1.2c.2418.2489-.2147.6209-.4813.7762-.2245.1281-.575.4238-.575.4238zm-1.5547-11.5731c-.1678-.5814-.9699-1.6606-.9699-1.6606s.4689-.0567.4813-.0567c.6712.1109 2.3049 2.1559 1.414 3.2105-.1382.1626-.3331.3178-.6416.3449-.1826.0148-.4862-.2439-.3677-.7367.0888-.3548.2344-.5889.0839-1.1014zm-4.4692 5.2161c-.0667 1.678.4615 2.3974 1.1475 2.4911-.5182.234-.8168.3425-1.2413.1256-.9205 2.2102-2.1791 3.8906-2.9367 4.5361-.4985.4238-1.4338.579-2.031.4238-.3998-.1035-.1604-.4139-.3899-.6554-.1333-.138-.232-.1602-.4245-.2119-.269-.1084.1086-.5495.7403-.6726-.765-.0395-.9106.3966-1.2758.781-.4664.4411-1.1056.4189-1.2093.0468-.0592-.2119-.0123-.3991-.0172-.6135-.0124-.5125-.2098-.3991-.1284-.6997.0963-.3499.6664-.3351 1.0982-.239.5331.1158.4492.1379.4566.0961.0074-.0616.0123-.1799-.7256-.2834-.6367-.0912-.9131.2094-.9402-.2562-.0099-.1824.232-.239.2813-.5027.0592-.3178-.2073-.409.0716-.6036.1678-.1183.7033-.1035.992.0123.6244.2513.8144.9092.8811.85.0641-.0985-.2172-.9683-1.2191-1.1112-.3184-.0394-.4788-.5076.2961-.5297.5182.0123.7477.1108 1.0143.3104.7033.5298.306 1.4956.6959 1.4882.9476-.0098 1.3943-1.4512 1.5449-2.0697.2689-1.1112.2813-1.6927-.1234-2.5181-.464-.9461-.8687-1.3231-1.2611-2.2151-.3677.2883-1.1426.2612-1.5276.1109 1.0982-.4287.7502-1.0422 1.7448-1.7001-.7502.0444-1.6313.0025-2.1791-.616 2.0014.3819 1.7645-1.264 2.8182-.579 1.0612-1.232 3.5093-1.8036 6.7964-1.9933.6984.8328.9353 1.3059 1.0217 1.6015.1481.5076-.2443.6801-.2838 1.1458-.0321.3646.1185.6603.4368.8623-1.4239.2637-4.1681 1.1876-4.1237 3.1883zm-5.9524 7.7713c-.2369.2661-.6515.9535-.6244.8894-.0666-.2488-.0888-.8352.0296-1.2122.1136-.3622.4023-.648.7675-.4879.3579.1577.0543.5569-.1727.8107zm-1.9915-1.2714c-.2345.2636-.7231.2932-.9798.6628-.0345-.345.3455-1.5597.8786-1.3552.3035.1552.2443.5298.1012.6924zm-.5824-2.4418c.2319-.1724.5972-.202.6613.0345.1703.6357-.9081.6185-1.2191.9339.0099-.4312.385-.8378.5578-.9684zm1.1623-.8032c-.1012.2365-.8711.0788-1.0957.0246.2172-.234 1.3005-.5026 1.0957-.0246zm-2.7442-9.9542-.0124-.0099c-.1653-.1454-.2764-.4139-.269-.6431.0247-.4361.5405-.5593.9354-.5765.1332-.0198.3775.0271.4738-.0493-.1925-.1528-.886-.101-1.1525-.0099-.2098.0616-.4121.1799-.6318.1873-.2591.0074-.4985-.1873-.5824-.4287-.3356-1.1778.8218-1.301 1.6214-.8846.1184.0419.3208.1922.4319.1602.0222-.0321-.1333-.1676-.2937-.2563-.2591-.1453-.5528-.2439-.8415-.2957-.4467-.0763-.8317.0198-.8045-.5395.1678-1.1581 1.4806-.6875 2.0334-.1109.0741.0616.1876.234.2715.239.0222-.1232-.1308-.3056-.2048-.414-.2147-.2809-.4862-.4312-.7774-.579-.1579-.0862-.3924-.1848-.3998-.3868.0025-.1922.311-.4016.5429-.5298.4418-.2809.9822-.1133 1.2882.3179.4862.5765-.1653 2.284.9748 2.183.6219-.1355 1.1895-.4977 1.7398-.8057 1.0168-.5913 1.8608-1.158 2.8751-1.9514.074-.0493.3529-.2563.3529-.2563s-.1086.2908-.1284.345c-.2319.6209-.5059 1.3749-.533 2.0672-.0124.2464-.0124.5051.0024.749.0149.1775.0617.4608.0617.4608s-.1752.1035-.2418.1306c-.3529.1552-1.5498.5593-2.1939.717-.7157.207-1.4289.2636-2.1248.4878-.2172.0912-.3529.2933-.5454.4066-.1974.1158-.459.1454-.6885.202-.4171.0813-.886.2883-1.1796.074zm-1.572.5543c.1653-.3498.9254-1.3132 1.187-.7958.232.4681-.9427.6037-1.187.7958zm-1.2438-1.7272s.6021-.7515.7996-.8402c.2171-.0985.5898-.0024.5676.3056-.005.2833-.422.2932-.6293.3375-.2443.0419-.7379.1971-.7379.1971zm1.5597-2.5501c-.0272.5297-1.4042-.0074-1.6165-.0616.3134-.2661 1.6485-.6086 1.6165.0616zm1.0118-9.937c.2319.0838.3899.3154.269.4977-.1037.1552-.3357.202-.5973.0862-.3627-.1552-.3109-.2464-.8291-.2932 0 0 .6317-.4804 1.1574-.2907zm.5602-1.4168c.185.0468.4565.1824.4911.3918.0493.2464-.2567.3844-.464.3252-.4911-.1355-.5158-.3523-1.0587-.4952.3233-.2021.6639-.308 1.0316-.2218zm-.3677 9.9592c-.1777.2365-1.0291-.2168-1.2784-.2563.2221-.1207.6071-.1552.8736-.1453.2517.0098.5775.1749.4048.4016zm1.5177-9.3801c.5528-.005.765.6061.7897 1.0668.0123.1158.0246.2489.037.3524.0197.1798.0395.2735.0617.2267.0173-.0321.0345-.1504.0469-.3105.0123-.1774.0148-.3918-.0025-.5741-.0222-.3277-.1752-.5889-.3159-.855-.3307-.611.6466-.7786 1.0143-.5125l.0148.0099c.3011.1823.4269.5913.3874.9954-.0024.1626-.0542.3745-.0345.5199.0123.0591.1357-.2316.1703-.4484.0345-.1972.0271-.4115-.0272-.6012-.1011-.3746-.3553-.6086-.2912-.6752.0593-.0492.1456-.032.2271-.0221.4121.0714.8218.3523.9649.7613.1703.4435-.0025.9856-.2986 1.37-.1654.2439-.4146.4459-.5429.7046-.4591 1.2369 5.0861 2.5379 5.0861 2.5379s-.38.1971-.6243.4878c-.3603.3721-.7182.8723-.9871 1.269-.1827.2414-.3258.4952-.3258.4952s-1.6855-.8648-2.5443-1.3625c-.5331-.3179-1.0809-.6382-1.6658-.8501-1.034-.3647-2.2729-.3967-2.7072-1.6213-.1456-.4164-.1234-.9584.1678-1.3009.5454-.5569.8415-.0641.9847.4731.0543.1897.1086.3178.1086.032 0-.2513-.1037-.6012-.2468-.8279-.1111-.1922-.2616-.372-.2888-.5938-.0419-.3917.427-.7564.8416-.7465zm.728-1.2517c.1036.0887.1777.3277-.0667.4829-.1776.1133-.3208.0912-.4688.0173-.3875-.2119-.3801-.2883-.8416-.4756.7823-.2735 1.1846-.1798 1.3771-.0246zm1.3573-.1109c.0913.0862.1308.2489-.0222.2932-.2024.0591-.4072-.0517-.5109-.1478-.1456-.1454-.3011-.2242-.4541-.3129.5084-.138.7947-.0074.9872.1675zm2.9317 2.8951c.617.7589 1.1254.7983 1.9891.7219.7946-.0936 2.1199-.1379 1.9915-.1182-.9007.133-1.5522.7416-2.4579.7786-.6836.0295-1.7225-.2415-1.5227-1.3823zm6.8927-5.8444c-.005.409-.1037.4755-.4023.5396.0469.2045.4294.34.6762.3425.348.0024.6614-.1922.7132-.3967-.2986-.0025-.3949-.207-.3899-.547.0049-.4755.5404-1.2172.5454-1.76171h.0814c-.0049.54451.5182 1.29601.5133 1.77151-.0025.3401-.1036.5421-.4022.5396.0468.2046.3997.4091.7452.414.2493.0025.5923-.1281.6417-.3326-.2962-.0715-.3949-.1405-.3924-.547.0049-.6111 1.2068-1.48332 1.2068-1.48332-.3085.80322-.6688 2.23482-.6762 3.05032-.4936-.2094-.8909-.2809-1.7349-.2883-.7946-.0074-1.192.0567-1.6905.2563.0074-.8156-.3232-2.2545-.6169-3.06266.0049 0 1.187.89436 1.1821 1.50546zm9.5998 2.7251c.3085.3967.5775 1.296.2418 2.6191-.2492.9757-.8785 1.1408-1.4239 1.9268-.343.478-.2986 1.0349.1925 2.0352.1604.3302.6638 1.1926 1.0167 1.3897-.2813.1798-.4837.2759-.7477.4287-1.1624-.8525-1.8336-2.0796-2.073-3.5481-.3109-2.0154.612-4.0063 2.7936-4.8514zm-10.16-9.34074c-12.8426 0-23.29379 10.43224-23.29379 23.25694s10.44879 23.2569 23.29379 23.2569 23.2937-10.4322 23.2937-23.2569-10.4512-23.25694-23.2937-23.25694z"/><path d="m28.0443 53.4695c-14.0641 0-25.50985-11.4252-25.50985-25.4695 0-14.0444 11.44325-25.46955 25.50985-25.46955s25.5099 11.42515 25.5099 25.46955c0 14.0443-11.4458 25.4695-25.5099 25.4695zm0-53.4695c-15.4634 0-28.0443 12.5611-28.0443 28s12.5809 28 28.0443 28 28.0418-12.5611 28.0418-28-12.5784-28-28.0418-28z"/><path d="m28.5921 14.1724c-.2492.2637-.5009.4041-.8983.3918.3653.1035.6466.1528.8811.0197.0123.1799.1554.3302.3455.3524.2147.0246.4071-.1232.4318-.3302.0173-.1528-.0617-.2957-.1925-.3696.1407-.0123.2814.0148.5281-.0493-.2048-.2809-.7378-.3917-1.0957-.0148z"/><path d="m26.4576 17.388s.3578.8451.5108.9708c0 0-.5256-.1306-.6712-.2267 0 0 .1184-.4805.1604-.7441zm-.3159.2513s-.3184-.611-.3973-.988c0 0 .3627.0961.6145.0517-.0025 0-.1358.4411-.2172.9363zm16.1469 1.3897c-.2048 1.7075-1.451 2.7768-2.7516 3.7328-.9575.717-2.7195 1.4981-2.9515 2.5871-.3085 1.4562.4121 1.6385 3.0996 3.521.8242-.1848 1.9274-2.0106 1.2462-3.4323-.496-1.0324-1.261-1.2024-1.9224-1.6607.3381-.1971.3332-.2143.7181-.478 1.7769 1.1088 2.7566 2.2767 2.2359 4.0704-.3875 1.333-1.5103 2.1215-1.461 2.9765.274 1.0274.3455 3.0774-1.6978 2.9419-1.8386-.1306-3.4254-1.1236-3.4377-1.131 0-.0098-.0222-.0862.0444.6604.1012 1.1432-.0469 1.9957.3801 2.5477 1.0784 1.3872 2.2481 1.6804 3.3957 1.4512-.2641.5199-.6342.9536-.9156.8648.6367.6185.58 1.1975.58 2.5206 0 1.1039-.3949 3.4323-1.2191 3.9817-.6367.4559-1.229.478-2.0779.4657.0592-.2267.0271-.4731-.1654-.6307-.1653-.1331-.2838-.1676-.5849-.1996-.1628-.0197.1629-.5519.2715-.6628.2147-.2193.4393-.2858.7181-.2661-.3948-.0542-.6342.0345-.9081.2735-.1358.1182-.2517.303-.3159.4558-.1037.3105-.1752.4903-.2542.5938-.1505.17-.2616.2415-.4713.2464-.3184.0049-.4566-.2168-.4566-.6948-.0099-.2982-.0814-.4263-.2739-.547-.1037-.0863-.3554-.0863-.4911.0517.0543-.2414.1357-.4361.4121-.648.3702-.2612 1.0661-.4065 1.5819-.1626-.538-.2489-.7873-.2784-1.2709-.138-.1925.0591-.4023.1626-.5084.2587-.1604.1528-.3085.1528-.3727.0567-.0666-.0986.2814-.2489.1555-.6283-.1431-.2415-.1357-.3548.0222-.4657.311-.2168 1.2784-.1478 1.614.1257-.2888-.3425-.6071-.4238-1.1895-.377-.2863.0222-.4886.1823-.4862 0-.0247-.754 1.0809-.8402 1.6633-.5322.6491.3425.8712 1.227 1.5844 1.1802.7773-.0542.9353-1.9637.1949-2.6857-.7921-.7663-1.7669-.7564-2.7615-.9708-.8834-.2168-1.2166-.611-1.4239-.85.0198.5199-.2024.8229-.7477 1.057.3405-.6874-.2666-1.0398-.2221-1.7494-.2049.717-.7774 1.3478-1.1525 1.4858.4787-1.025-.6565-2.5009.7848-2.7029-.274-2.1905 1.4708-2.1905 1.0118-3.76-.4146-1.4192-1.4832-2.05-3.6351-2.9468-.881-.3672-2.1618-.7663-2.9812-1.5424-.7452.4952-1.3671 1.158-1.6806 2.1707-.5059-1.0004-1.182-2.9321.5553-5.8026-1.3055.8575-2.379.4953-2.7886.1405 1.0759-.1577 1.5868-1.1679 2.1939-2.0648.7058-.8993 1.2783-1.8553 3.8991-2.1313.8169-.0862 1.9669-.2341 2.4604-1.0102.3776-.5371.1555-1.0669.1555-1.0669s.0173.7712-.5725 1.1802c-.422.2908-.9107.4386-1.1328.4756-.9747.1872-1.7398.0714-1.8632-.0173-.1233-.0887-.4269-.1946-.1505-.6455.2468-.4016.3035.1035 1.3376.0296 1.0192-.074 1.1475-.515 1.1426-1.4858-.0074-1.1556-.2098-1.2812-.7231-1.2812-.538 0-.575.3449-1.0587.6135-.5602.3154-.9279.1059-.9279.1059s-.2616-.0714-.2394-.4114c.0148-.3745.2345-.3795.4072-.5519.0543-.0543.1752-.1577.1826-.3573.005-.1996-.0444-.6456-.2887-.4164-.2122.1996.1777.2464.1036.4533-.0937.2563-.4392.3696-.4392.3696s-.0963-.7736.0888-.9239c.3184-.2563 1.039-.2711 1.1451-.2932.4442-.1035.7749-.6752 1.1179-.9142s.8909-.3646 1.3277-.3695c.8983-.0099.4985-.0469 1.5078.0468.5035.1035.6737.2464.9501.4977.2715-.0739 1.0637.0813 1.5301.0936-.195.5051-.2419 1.3108-.5849 1.5991.0074.0296.0173.0591.0247.0912.4096 1.2295 1.0143 2.1041 1.9668 2.2076-.9106.5002-1.6855.1257-1.6855.1257.0518.069.5084.3967.2814 1.6508-.1703.887.3652 2.0697 1.2166 2.3999-.8144.234-2.1717-.2785-2.2852-.4189.0099.0222-.0938.0542-.7453 1.0127.8243 4.4572 2.5715 6.9753 3.5339 7.8722 1.0316.9634 5.1059 3.3953 4.7284.9659-.2641-1.7051-1.8854-2.4714-2.4901-2.9937-1.7422-1.5079-1.7422-2.8483-.7872-3.9226 1.3277-1.4931 3.5389-1.981 4.257-3.7722.6219-1.5498-.1851-1.0669-.7403-2.0525-.617-1.3034-.4566-2.7226-.3357-3.2006 1.8756.3277 3.0379 2.0155 2.7985 3.7575zm-7.707 26.6103s-.2171-1.8159.5504-1.5473c.723.2537-.5504 1.5473-.5504 1.5473zm-1.7891-1.0595c-.2345.2957-.5824.6554-.5824.6554s-.0568-.7663.0987-1.2319c.1086-.3425.5725-.8944.8069-.3647.1382.3277-.1357.6924-.3232.9412zm-1.2191-3.0109s.8168-.8796.8637-.4435c.0296.2538-.8637.4435-.8637.4435zm-.2123 1.6558s.5158-1.7568 1.0563-1.2c.2418.2489-.2147.6209-.4813.7762-.2245.1281-.575.4238-.575.4238zm-1.5547-11.5731c-.1678-.5814-.9699-1.6606-.9699-1.6606s.4689-.0567.4813-.0567c.6712.1109 2.3049 2.1559 1.414 3.2105-.1382.1626-.3331.3178-.6416.3449-.1826.0148-.4862-.2439-.3677-.7367.0888-.3548.2344-.5889.0839-1.1014zm-4.4692 5.2161c-.0667 1.678.4615 2.3974 1.1475 2.4911-.5182.234-.8168.3425-1.2413.1256-.9205 2.2102-2.1791 3.8906-2.9367 4.5361-.4985.4238-1.4338.579-2.031.4238-.3998-.1035-.1604-.4139-.3899-.6554-.1333-.138-.232-.1602-.4245-.2119-.269-.1084.1086-.5495.7403-.6726-.765-.0395-.9106.3966-1.2758.781-.4664.4411-1.1056.4189-1.2093.0468-.0592-.2119-.0123-.3991-.0172-.6135-.0124-.5125-.2098-.3991-.1284-.6997.0963-.3499.6664-.3351 1.0982-.239.5331.1158.4492.1379.4566.0961.0074-.0616.0123-.1799-.7256-.2834-.6367-.0912-.9131.2094-.9402-.2562-.0099-.1824.232-.239.2813-.5027.0592-.3178-.2073-.409.0716-.6036.1678-.1183.7033-.1035.992.0123.6244.2513.8144.9092.8811.85.0641-.0985-.2172-.9683-1.2191-1.1112-.3184-.0394-.4788-.5076.2961-.5297.5182.0123.7477.1108 1.0143.3104.7033.5298.306 1.4956.6959 1.4882.9476-.0098 1.3943-1.4512 1.5449-2.0697.2689-1.1112.2813-1.6927-.1234-2.5181-.464-.9461-.8687-1.3231-1.2611-2.2151-.3677.2883-1.1426.2612-1.5276.1109 1.0982-.4287.7502-1.0422 1.7448-1.7001-.7502.0444-1.6313.0025-2.1791-.616 2.0014.3819 1.7645-1.264 2.8182-.579 1.0612-1.232 3.5093-1.8036 6.7964-1.9933.6984.8328.9353 1.3059 1.0217 1.6015.1481.5076-.2443.6801-.2838 1.1458-.0321.3646.1185.6603.4368.8623-1.4239.2637-4.1681 1.1876-4.1237 3.1883zm-5.9524 7.7713c-.2369.2661-.6515.9535-.6244.8894-.0666-.2488-.0888-.8352.0296-1.2122.1136-.3622.4023-.648.7675-.4879.3579.1577.0543.5569-.1727.8107zm-1.9915-1.2714c-.2345.2636-.7231.2932-.9798.6628-.0345-.345.3455-1.5597.8786-1.3552.3035.1552.2443.5298.1012.6924zm-.5824-2.4418c.2319-.1724.5972-.202.6613.0345.1703.6357-.9081.6185-1.2191.9339.0099-.4312.385-.8378.5578-.9684zm1.1623-.8032c-.1012.2365-.8711.0788-1.0957.0246.2172-.234 1.3005-.5026 1.0957-.0246zm-2.7442-9.9542-.0124-.0099c-.1653-.1454-.2764-.4139-.269-.6431.0247-.4361.5405-.5593.9354-.5765.1332-.0198.3775.0271.4738-.0493-.1925-.1528-.886-.101-1.1525-.0099-.2098.0616-.4121.1799-.6318.1873-.2591.0074-.4985-.1873-.5824-.4287-.3356-1.1778.8218-1.301 1.6214-.8846.1184.0419.3208.1922.4319.1602.0222-.0321-.1333-.1676-.2937-.2563-.2591-.1453-.5528-.2439-.8415-.2957-.4467-.0763-.8317.0198-.8045-.5395.1678-1.1581 1.4806-.6875 2.0334-.1109.0741.0616.1876.234.2715.239.0222-.1232-.1308-.3056-.2048-.414-.2147-.2809-.4862-.4312-.7774-.579-.1579-.0862-.3924-.1848-.3998-.3868.0025-.1922.311-.4016.5429-.5298.4418-.2809.9822-.1133 1.2882.3179.4862.5765-.1653 2.284.9748 2.183.6219-.1355 1.1895-.4977 1.7398-.8057 1.0168-.5913 1.8608-1.158 2.8751-1.9514.074-.0493.3529-.2563.3529-.2563s-.1086.2908-.1284.345c-.2319.6209-.5059 1.3749-.533 2.0672-.0124.2464-.0124.5051.0024.749.0149.1775.0617.4608.0617.4608s-.1752.1035-.2418.1306c-.3529.1552-1.5498.5593-2.1939.717-.7157.207-1.4289.2636-2.1248.4878-.2172.0912-.3529.2933-.5454.4066-.1974.1158-.459.1454-.6885.202-.4171.0813-.886.2883-1.1796.074zm-1.572.5543c.1653-.3498.9254-1.3132 1.187-.7958.232.4681-.9427.6037-1.187.7958zm-1.2438-1.7272s.6021-.7515.7996-.8402c.2171-.0985.5898-.0024.5676.3056-.005.2833-.422.2932-.6293.3375-.2443.0419-.7379.1971-.7379.1971zm1.5597-2.5501c-.0272.5297-1.4042-.0074-1.6165-.0616.3134-.2661 1.6485-.6086 1.6165.0616zm1.0118-9.937c.2319.0838.3899.3154.269.4977-.1037.1552-.3357.202-.5973.0862-.3627-.1552-.3109-.2464-.8291-.2932 0 0 .6317-.4804 1.1574-.2907zm.5602-1.4168c.185.0468.4565.1824.4911.3918.0493.2464-.2567.3844-.464.3252-.4911-.1355-.5158-.3523-1.0587-.4952.3233-.2021.6639-.308 1.0316-.2218zm-.3677 9.9592c-.1777.2365-1.0291-.2168-1.2784-.2563.2221-.1207.6071-.1552.8736-.1453.2517.0098.5775.1749.4048.4016zm1.5177-9.3801c.5528-.005.765.6061.7897 1.0668.0123.1158.0246.2489.037.3524.0197.1798.0395.2735.0617.2267.0173-.0321.0345-.1504.0469-.3105.0123-.1774.0148-.3918-.0025-.5741-.0222-.3277-.1752-.5889-.3159-.855-.3307-.611.6466-.7786 1.0143-.5125l.0148.0099c.3011.1823.4269.5913.3874.9954-.0024.1626-.0542.3745-.0345.5199.0123.0591.1357-.2316.1703-.4484.0345-.1972.0271-.4115-.0272-.6012-.1011-.3746-.3553-.6086-.2912-.6752.0593-.0492.1456-.032.2271-.0221.4121.0714.8218.3523.9649.7613.1703.4435-.0025.9856-.2986 1.37-.1654.2439-.4146.4459-.5429.7046-.4591 1.2369 5.0861 2.5379 5.0861 2.5379s-.38.1971-.6243.4878c-.3603.3721-.7182.8723-.9871 1.269-.1827.2414-.3258.4952-.3258.4952s-1.6855-.8648-2.5443-1.3625c-.5331-.3179-1.0809-.6382-1.6658-.8501-1.034-.3647-2.2729-.3967-2.7072-1.6213-.1456-.4164-.1234-.9584.1678-1.3009.5454-.5569.8415-.0641.9847.4731.0543.1897.1086.3178.1086.032 0-.2513-.1037-.6012-.2468-.8279-.1111-.1922-.2616-.372-.2888-.5938-.0419-.3917.427-.7564.8416-.7465zm.728-1.2517c.1036.0887.1777.3277-.0667.4829-.1776.1133-.3208.0912-.4688.0173-.3875-.2119-.3801-.2883-.8416-.4756.7823-.2735 1.1846-.1798 1.3771-.0246zm1.3573-.1109c.0913.0862.1308.2489-.0222.2932-.2024.0591-.4072-.0517-.5109-.1478-.1456-.1454-.3011-.2242-.4541-.3129.5084-.138.7947-.0074.9872.1675zm2.9317 2.8951c.617.7589 1.1254.7983 1.9891.7219.7946-.0936 2.1199-.1379 1.9915-.1182-.9007.133-1.5522.7416-2.4579.7786-.6836.0295-1.7225-.2415-1.5227-1.3823zm6.8927-5.8444c-.005.409-.1037.4755-.4023.5396.0469.2045.4294.34.6762.3425.348.0024.6614-.1922.7132-.3967-.2986-.0025-.3949-.207-.3899-.547.0049-.4755.5404-1.2172.5454-1.76171h.0814c-.0049.54451.5182 1.29601.5133 1.77151-.0025.3401-.1036.5421-.4022.5396.0468.2046.3997.4091.7452.414.2493.0025.5923-.1281.6417-.3326-.2962-.0715-.3949-.1405-.3924-.547.0049-.6111 1.2068-1.48332 1.2068-1.48332-.3085.80322-.6688 2.23482-.6762 3.05032-.4936-.2094-.8909-.2809-1.7349-.2883-.7946-.0074-1.192.0567-1.6905.2563.0074-.8156-.3232-2.2545-.6169-3.06266.0049 0 1.187.89436 1.1821 1.50546zm9.5998 2.7251c.3085.3967.5775 1.296.2418 2.6191-.2492.9757-.8785 1.1408-1.4239 1.9268-.343.478-.2986 1.0349.1925 2.0352.1604.3302.6638 1.1926 1.0167 1.3897-.2813.1798-.4837.2759-.7477.4287-1.1624-.8525-1.8336-2.0796-2.073-3.5481-.3109-2.0154.612-4.0063 2.7936-4.8514zm-10.16-9.34074c-12.8426 0-23.29379 10.43224-23.29379 23.25694s10.44879 23.2569 23.29379 23.2569 23.2937-10.4322 23.2937-23.2569-10.4512-23.25694-23.2937-23.25694z"/><path d="m62.8381 13.5713v-1.0422h4.6469v1.0274l-1.2635.1552 2.0113 6.5688.5158 1.9145.4837-1.8972 1.8385-6.5861-1.2166-.1404v-1.0422h3.946v1.0422l-.8736.1257-3.5709 10.7574h-1.6831l-3.8819-10.7574z"/><path d="m75.624 23.2692v-9.6832l-1.1229-.3721v-.9042l2.8997-.3573.3899.1552v11.1468l1.3425.202v.8723h-4.6173v-.8723z"/><path d="m85.0412 10.5037 1.5917 1.3847c-.3109.4878-.7823.9338-1.4116 1.3379s-1.266.717-1.9101.9338l-.5602-.5765zm-1.9644 10.0503c-.5503.276-.8267.7022-.8267 1.2837 0 .956.4935 1.4315 1.4807 1.4315.2196 0 .4417-.0394.6712-.1182.2295-.0789.4146-.1897.5602-.3351l.0148-2.6783c-.7132.0025-1.3474.1404-1.9002.4164zm3.2452-4.2429c.5602.4559.8415 1.2147.8415 2.2718l-.0148 4.8736h.9822v.685c-.1974.1256-.464.2242-.7946.2956-.3332.0715-.6442.1085-.9354.1085-.76 0-1.1549-.3105-1.1845-.9339-.5602.6135-1.34.9191-2.3395.9191-.8415 0-1.5227-.2242-2.0434-.6702s-.7798-1.0176-.7798-1.7124c0-.685.2468-1.2566.7404-1.7125.4935-.4558 1.1179-.7884 1.8706-.9954s1.5251-.3104 2.3148-.3104v-.3746c0-.6849-.1481-1.1629-.4442-1.4315-.2962-.271-.7502-.4041-1.3647-.4041-.3653 0-.7626.0542-1.192.1626-.4319.1084-.8094.2514-1.1303.4288l-.4047-.9659c.3529-.2907.8712-.5174 1.5523-.6776.6811-.1601 1.3178-.2414 1.9101-.2414 1.0488 0 1.8533.2291 2.416.6849z"/><path d="m92.3853 16.9271c-.343.2636-.6194.648-.8267 1.1507-.2073.5026-.3109 1.0865-.3109 1.7518 0 .6751.0937 1.2788.2813 1.8134.1876.5347.4467.9536.7798 1.2542.3332.3006.7058.4509 1.1229.4509.2813 0 .5454-.0345.7946-.101.2493-.0666.4516-.1627.6071-.2883v-6.0095c-.3331-.2809-.7798-.4214-1.34-.4214-.3949 0-.765.1331-1.1081.3992zm4.6173-4.7874v11.3168h1.0439v.717c-.1875.1133-.4639.2094-.8267.2883-.3652.0788-.7601.1158-1.1846.1158-.3331 0-.5824-.0567-.7477-.1725-.1654-.1133-.2764-.3154-.3282-.6061-.2394.1971-.5824.3671-1.0291.5125-.4467.1453-.9254.2168-1.4338.2168-.654 0-1.2438-.1774-1.7694-.5297-.5257-.3524-.9378-.8575-1.2389-1.5104-.3011-.653-.4516-1.4119-.4516-2.2742 0-.892.2073-1.6903.6244-2.3974.4146-.7047.9821-1.2566 1.7003-1.6509.7181-.3942 1.5078-.5913 2.3691-.5913.4787 0 .8465.032 1.108.0936v-2.0869l-1.6682-.3745v-.9018l3.3982-.3573z"/><path d="m102.21 20.5541c-.551.2759-.827.7022-.827 1.2837 0 .956.494 1.4315 1.481 1.4315.219 0 .441-.0394.671-.1183.229-.0788.415-.1897.56-.3351l.015-2.6782c-.716.0024-1.35.1404-1.9.4164zm3.242-4.2429c.561.4558.842 1.2147.842 2.2717l-.015 4.8737h.982v.6849c-.197.1257-.464.2243-.794.2957-.333.0715-.644.1084-.936.1084-.76 0-1.155-.3104-1.184-.9338-.56.6135-1.34.919-2.34.919-.841 0-1.522-.2242-2.043-.6702-.5207-.4459-.7798-1.0176-.7798-1.7124 0-.6849.2468-1.2566.7404-1.7124.4934-.4558 1.1174-.7885 1.8704-.9954.753-.207 1.525-.3105 2.315-.3105v-.3745c0-.685-.148-1.163-.444-1.4315-.296-.2711-.75-.4041-1.365-.4041-.365 0-.762.0542-1.192.1626-.432.1084-.809.2513-1.1302.4287l-.4047-.9658c.3529-.2908.8709-.5175 1.5519-.6776.681-.1602 1.318-.2415 1.91-.2415 1.049 0 1.856.2292 2.416.685z"/><path d="m66.9248 28.4065 1.9496 1.1063 2.0434-1.1063.7477.4681-1.9347 1.9465h-1.6831l-1.9323-1.9292zm4.3261 2.8187c.4418.0838.9057.1873 1.3944.3105l.3282.0788-.1407 2.6142h-1.2314l-.5133-1.4019c-.2295-.1774-.4739-.308-.733-.3967s-.6614-.1331-1.1993-.1331c-.6664 0-1.2586.1947-1.7769.584-.5207.3893-.9229.9313-1.2092 1.6262-.2863.6948-.4294 1.4956-.4294 2.3974 0 .9239.1382 1.7838.4121 2.5772.2764.7934.6861 1.4316 1.2315 1.9145.5453.4829 1.1969.7244 1.9569.7244 1.0711 0 1.7621-.2538 2.073-.7638l.5454-1.3232h1.0291v2.4763c-.1259 0-.2814.032-.4689.0936-.1876.0616-.3011.0986-.343.1084-.5504.1552-1.0563.2809-1.5128.3745-.459.0937-.9921.1405-1.6066.1405-1.1129 0-2.1001-.2366-2.9613-.7072-.8638-.473-1.535-1.1408-2.0187-2.0081-.4837-.8648-.7256-1.8652-.7256-2.9961 0-1.2344.2888-2.3407.8662-3.3164.5775-.9757 1.3574-1.7346 2.3395-2.2816.9822-.5445 2.0557-.818 3.2205-.818.5405 0 1.0316.0418 1.4733.1256z"/><path d="m77.2157 35.919c-.3331.4509-.5306 1.0965-.5923 1.9391h3.3217c.0198-.2488.0321-.441.0321-.5765 0-.5914-.1135-1.0275-.343-1.3084-.1678-.4878-.5405-.7317-1.1229-.7317-.533 0-.9649.2266-1.2956.6775zm4.0226-.8328c.5503.5495.8514 1.333.9056 2.3506.0099.3524-.0024.6801-.0394.9807-.0371.3006-.0593.4878-.0691.5617h-5.4095c.042.924.2887 1.6361.7403 2.1412.4517.5026 1.0933.7564 1.9249.7564.3752 0 .7725-.0394 1.192-.1158s.7823-.1897 1.0834-.3351l.3578.8106c-.3529.3006-.8465.5396-1.4807.717-.6342.175-1.2586.2637-1.8706.2637-1.3301 0-2.3568-.3844-3.0798-1.1507-.7231-.7687-1.0834-1.8257-1.0834-3.176 0-.8919.1925-1.6878.5775-2.39.3849-.6997.9205-1.2467 1.6065-1.6409.6861-.3943 1.4659-.5914 2.3395-.5914.9847-.0074 1.7522.2686 2.305.818z"/><path d="m84.8709 40.6275.422.8722c.2912.2587.5453.446.765.5593.2196.1134.4985.1725.8415.1725.4689 0 .8341-.0986 1.1007-.2957.264-.1971.3973-.4829.3973-.8574-.0099-.2809-.1432-.5125-.3973-.6998-.2542-.1872-.6639-.409-1.2241-.6702l-.4047-.1872c-.8119-.3745-1.4363-.7811-1.878-1.2221-.4418-.4411-.6614-.9831-.6614-1.6262 0-.5199.1654-.9585.4985-1.3231.3332-.3622.7552-.6357 1.2709-.8181.5158-.1823 1.0464-.2735 1.5992-.2735.4664-.0098.96.0321 1.4733.1232.5133.0937.9229.207 1.224.3425v1.8849h-1.0291l-.3899-.8722c-.3109-.3942-.7008-.5913-1.1697-.5913-.4048 0-.733.0813-.9822.2414-.2493.1602-.3751.4016-.3751.7244 0 .2587.0888.4879.264.685.1777.1971.3924.3646.6466.5051.2542.1404.6564.3449 1.2092.616.5306.2488.96.4755 1.2858.6775.3282.2021.5947.4583.802.7713.2073.3104.311.6849.311 1.121 0 .9018-.3505 1.5794-1.0538 2.0328-.7009.4509-1.5942.6775-2.6727.6775-.4985 0-1.0093-.0591-1.5275-.1798-.5208-.1183-.9674-.2834-1.3401-.4903v-1.8997z"/><path d="m92.8073 41.936v-9.5427l-1.2956-.4361v-.9043l3.0725-.4189.4071.1873v6.9113l-.0789.9954 2.8232-3.0035-1.2808-.1404v-1.1039h4.2892v1.1186l-1.3402.1257-2.1519 2.1485 2.8531 4.0951.888.1552v.887h-4.1483v-.887l.8267-.202-1.8089-2.8336-.9501 1.0127.0617.9807v.887l.9822.17v.8722h-4.2718v-.8722z"/><path d="m107.074 29.1851 1.592 1.3847c-.311.4878-.783.9338-1.412 1.3379s-1.266.717-1.91.9338l-.56-.5765zm-2.572 6.7339c-.333.4509-.53 1.0964-.592 1.9391h3.322c.02-.2489.032-.4411.032-.5766 0-.5913-.114-1.0274-.343-1.3083-.168-.4879-.541-.7318-1.123-.7318-.533 0-.965.2267-1.296.6776zm4.023-.8328c.55.5494.851 1.3329.906 2.3505.01.3524-.003.6801-.04.9807s-.059.4878-.069.5617h-5.409c.042.924.288 1.6361.74 2.1412.452.5026 1.093.7564 1.925.7564.375 0 .772-.0394 1.192-.1158.419-.0764.782-.1897 1.083-.3351l.358.8106c-.353.3006-.846.5396-1.481.717-.634.175-1.258.2637-1.87.2637-1.33 0-2.357-.3844-3.08-1.1507-.723-.7687-1.083-1.8257-1.083-3.176 0-.8919.192-1.6877.577-2.39.385-.6997.921-1.2467 1.607-1.6409.686-.3943 1.465-.5914 2.339-.5914.985-.0074 1.752.2686 2.305.8181z"/><path d="m115.432 41.9506v-5.465l-1.061-.6997v-.7466l2.48-.7466.469.1553v1.3551c.146-.3745.464-.717.96-1.0274.494-.3105.953-.4682 1.38-.4682.404 0 .666.0197.78.0616v2.0869c-.156-.0936-.358-.17-.607-.234-.25-.0616-.499-.0937-.748-.0937-.593 0-1.081.1232-1.466.3746v5.4009l1.935.234v.8723h-5.178v-.8723z"/><path d="m124.225 35.919c-.333.4509-.53 1.0965-.592 1.9391h3.322c.019-.2488.032-.441.032-.5765 0-.5914-.116-1.0275-.343-1.3084-.166-.4878-.541-.7317-1.123-.7317-.531 0-.963.2266-1.296.6775zm4.023-.8328c.55.5495.851 1.333.903 2.3506.01.3524-.002.6801-.039.9807s-.06.4878-.07.5617h-5.409c.042.924.289 1.6361.74 2.1412.452.5026 1.094.7564 1.925.7564.375 0 .773-.0394 1.192-.1158.422-.0788.782-.1897 1.084-.3351l.357.8106c-.353.3006-.846.5396-1.48.717-.635.175-1.259.2637-1.871.2637-1.33 0-2.357-.3844-3.08-1.1507-.723-.7687-1.083-1.8257-1.083-3.176 0-.8919.192-1.6878.577-2.39.385-.6997.921-1.2467 1.607-1.6409.686-.3943 1.466-.5914 2.339-.5914.988-.0074 1.757.2686 2.308.818z"/><path d="m134.306 35.6849c-.244.1306-.439.2735-.585.4287v5.3713c.094.1972.277.345.546.4436.269.0985.577.1478.92.1478.395 0 .746-.138 1.054-.4115.306-.2759.548-.6652.726-1.1679.177-.5026.264-1.0989.264-1.7814 0-1.0176-.198-1.8085-.593-2.3752s-.915-.8476-1.559-.8476c-.272-.0025-.528.0641-.773.1922zm4.178-.3499c.607.717.913 1.7642.913 3.144 0 .8623-.2 1.6508-.599 2.3653-.4.717-.95 1.2837-1.654 1.7051-.701.4188-1.478.6307-2.332.6307-.197 0-.427-.0172-.686-.0542-.259-.0369-.415-.0591-.469-.069l.079 1.604v1.1532l1.498.202v.887h-4.662v-.887l.997-.202v-9.326l-1.043-.6997v-.7466l2.48-.7466.436.1552v.9339c.198-.2908.543-.5495 1.037-.7786.494-.2267.995-.3425 1.505-.3425 1.059-.0025 1.893.3548 2.5 1.0718z"/><path d="m140.661 35.6628v-.7786l2.51-.5766.343.1232v5.263c0 .7687.093 1.3231.281 1.6656s.545.5125 1.076.5125c.301 0 .612-.0616.935-.1873.321-.1256.556-.2587.701-.4041v-5.1225l-.967-.404v-.8723l2.776-.5765.311.1232v7.7071h.888v.7318c-.165.1035-.444.1971-.834.2809s-.725.1256-1.004.1256c-.291 0-.526-.064-.701-.1946-.178-.1306-.264-.3252-.264-.5839v-.4362c-.323.3327-.728.6037-1.217.8181-.488.2119-.945.3178-1.372.3178-.738 0-1.305-.133-1.7-.3967-.395-.2636-.661-.6381-.795-1.1211-.135-.4829-.207-1.1186-.219-1.907v-3.7058z"/><path d="m154.024 42.0689c.249.1084.551.1627.903.1627.654 0 1.178-.3351 1.568-1.0053.389-.6702.584-1.5548.584-2.6537 0-.6233-.098-1.1654-.296-1.6262-.197-.4607-.469-.818-.812-1.0668-.343-.2489-.718-.3746-1.123-.3746-.488 0-.93.1356-1.325.4041v5.6991c.084.1971.249.3523.501.4607zm-3.79-10.2055v-.9018l2.899-.3105.39.1232v4.2035c.634-.478 1.362-.717 2.184-.717 1.071 0 1.928.3548 2.574 1.0668.644.7121.968 1.742.968 3.0898 0 .8722-.195 1.6755-.585 2.4122s-.933 1.3206-1.629 1.7518-1.476.6456-2.34.6456c-.666 0-1.337-.0641-2.018-.1947s-1.121-.2735-1.318-.4287v-10.3682z"/><path d="m161.632 41.9508v-9.6832l-1.122-.372v-.9043l2.899-.3573.39.1553v11.1467l1.34.2021v.8722h-4.615v-.8722z"/><path d="m169.201 30.4614c.222.2291.336.5297.336.9018 0 .4263-.156.7761-.467 1.0496-.311.276-.676.4115-1.09.4115-.353 0-.659-.1158-.921-.3499-.259-.234-.39-.5322-.39-.8944 0-.4041.161-.749.484-1.0348.321-.2858.681-.4287 1.076-.4287.424.0024.75.1182.972.3449zm.133 4.0187v7.473l1.155.1873v.8722h-4.444v-.8722l1.155-.2021v-5.3393l-.997-.8722v-.6234l2.635-.8081z"/><path d="m172.594 41.936v-9.5427l-1.295-.4361v-.9043l3.072-.4189.405.1873v6.9113l-.077.9954 2.821-3.0035-1.278-.1404v-1.1039h4.289v1.1186l-1.343.1257-2.152 2.1485 2.856 4.0951.888.1552v.887h-4.148v-.887l.826-.202-1.809-2.8336-.95 1.0127.062.9807v.887l.982.17v.8722h-4.272v-.8722z"/><path d="m182.838 45.3141c.469 0 .884-.1898 1.247-.5692.362-.3795.654-.9733.873-1.7839h-.405l-2.993-7.1601-.701-.1701v-1.121h4.023v1.121l-.936.1701 1.592 4.5311.281 1.0743.329-1.1063 1.357-4.5139-1.123-.1553v-1.121h3.618v1.121l-.763.1405c-.446 1.2763-1.014 2.8138-1.7 4.6075-.686 1.7962-1.081 2.7966-1.184 3.0035-.334.8501-.659 1.5277-.983 2.0328-.32.5026-.691.8697-1.105 1.0964-.385.3425-.847.515-1.387.515-.166 0-.348-.0099-.546-.0321-.197-.0221-.323-.0468-.375-.0788l.015-1.6976c.336.0763.627.1059.866.0961z"/></g></svg>